<svg width="64" height="64" viewBox="0 0 64 64" fill="none" xmlns="http://www.w3.org/2000/svg">
<path d="M31.4589 10C37.7526 10 43.1112 12.1973 47.5304 16.5898C49.6455 18.7055 51.2535 21.1236 52.3518 23.8419C53.4494 26.561 54 29.4466 54 32.5004C54 35.5808 53.4565 38.4672 52.3729 41.1581C51.288 43.8497 49.687 46.2277 47.5719 48.29C45.376 50.4591 42.8848 52.1207 40.0983 53.2724C37.3132 54.4241 34.4331 55 31.4603 55C28.4874 55 25.6411 54.4319 22.9221 53.2921C20.2038 52.1544 17.766 50.507 15.6095 48.3511C13.453 46.1953 11.8125 43.7639 10.6875 41.0582C9.56251 38.3526 9 35.5006 9 32.5004C9 29.5268 9.56884 26.6678 10.7072 23.9221C11.8456 21.1763 13.5001 18.7189 15.6692 16.549C19.9549 12.1839 25.2178 10 31.4589 10ZM31.5404 14.0585C26.3977 14.0585 22.0713 15.8536 18.5619 19.4424C16.7936 21.2375 15.4344 23.2527 14.4838 25.4894C13.5317 27.7261 13.0571 30.0633 13.0571 32.5011C13.0571 34.9121 13.5317 37.236 14.4838 39.4712C15.4351 41.7093 16.7936 43.7048 18.5619 45.4591C20.3296 47.2142 22.3244 48.5522 24.5491 49.4776C26.7718 50.4015 29.1027 50.8635 31.5404 50.8635C33.9508 50.8635 36.2866 50.3959 38.5528 49.4579C40.8162 48.5192 42.8567 47.1678 44.6792 45.4001C48.1879 41.9716 49.9415 37.6726 49.9415 32.5018C49.9415 30.0105 49.4859 27.6536 48.5753 25.4303C47.6662 23.207 46.3393 21.2256 44.5998 19.4832C40.9814 15.867 36.6297 14.0585 31.5404 14.0585ZM31.2585 28.7646L28.2441 30.3319C27.9221 29.6632 27.5276 29.1935 27.0593 28.9256C26.5904 28.6584 26.1551 28.5241 25.7529 28.5241C23.7448 28.5241 22.7393 29.8495 22.7393 32.5018C22.7393 33.7069 22.9938 34.6702 23.5022 35.3938C24.0112 36.1173 24.7615 36.4794 25.7529 36.4794C27.0657 36.4794 27.9896 35.836 28.5261 34.5507L31.2978 35.957C30.7086 37.056 29.8916 37.9194 28.8467 38.5487C27.8033 39.1787 26.6508 39.493 25.3915 39.493C23.3826 39.493 21.7612 38.8778 20.5293 37.6445C19.2974 36.4126 18.6815 34.6984 18.6815 32.5025C18.6815 30.3593 19.3045 28.6591 20.5497 27.3998C21.795 26.1412 23.3686 25.5112 25.2713 25.5112C28.0578 25.5098 30.0526 26.5947 31.2585 28.7646ZM44.2363 28.7646L41.2627 30.3319C40.9414 29.6632 40.5455 29.1935 40.0772 28.9256C39.6075 28.6584 39.1582 28.5241 38.7314 28.5241C36.7225 28.5241 35.7171 29.8495 35.7171 32.5018C35.7171 33.7069 35.9723 34.6702 36.4807 35.3938C36.989 36.1173 37.7386 36.4794 38.7314 36.4794C40.0428 36.4794 40.9674 35.836 41.5025 34.5507L44.315 35.957C43.6998 37.056 42.8687 37.9194 41.8252 38.5487C40.7803 39.1787 39.642 39.493 38.4101 39.493C36.3738 39.493 34.7474 38.8778 33.5296 37.6445C32.309 36.4126 31.7 34.6984 31.7 32.5025C31.7 30.3593 32.3223 28.6591 33.569 27.3998C34.8135 26.1412 36.3871 25.5112 38.2891 25.5112C41.075 25.5098 43.0585 26.5947 44.2363 28.7646Z" fill="#EC8572"/>
</svg>
