<svg width="32" height="28" viewBox="0 0 32 28" fill="none" xmlns="http://www.w3.org/2000/svg">
<g clip-path="url(#clip0_197_199)">
<path d="M26.06 0H25.94C24.3646 0 22.8538 0.62582 21.7398 1.73979C20.6258 2.85375 20 4.36461 20 5.94V6.06C20.0006 7.29493 20.3862 8.49896 21.1031 9.50447C21.8201 10.51 22.8327 11.267 24 11.67V18C24 18.5304 23.7893 19.0391 23.4142 19.4142C23.0391 19.7893 22.5304 20 22 20H21.67C21.267 18.8327 20.51 17.8201 19.5045 17.1031C18.499 16.3862 17.2949 16.0006 16.06 16H15.94C14.7051 16.0006 13.501 16.3862 12.4955 17.1031C11.49 17.8201 10.733 18.8327 10.33 20H10C9.46957 20 8.96086 19.7893 8.58579 19.4142C8.21071 19.0391 8 18.5304 8 18V11.67C9.16731 11.267 10.1799 10.51 10.8969 9.50447C11.6138 8.49896 11.9994 7.29493 12 6.06V5.94C12 4.36461 11.3742 2.85375 10.2602 1.73979C9.14625 0.62582 7.63539 0 6.06 0L5.94 0C4.36461 0 2.85375 0.62582 1.73979 1.73979C0.62582 2.85375 0 4.36461 0 5.94L0 6.06C0.00059119 7.29493 0.386197 8.49896 1.10314 9.50447C1.82008 10.51 2.83269 11.267 4 11.67V20.04C4 21.0903 4.41721 22.0975 5.15986 22.8401C5.9025 23.5828 6.90974 24 7.96 24H10.33C10.733 25.1673 11.49 26.1799 12.4955 26.8969C13.501 27.6138 14.7051 27.9994 15.94 28H16.06C17.2949 27.9994 18.499 27.6138 19.5045 26.8969C20.51 26.1799 21.267 25.1673 21.67 24H24.04C25.0903 24 26.0975 23.5828 26.8401 22.8401C27.5828 22.0975 28 21.0903 28 20.04V11.67C29.1673 11.267 30.1799 10.51 30.8969 9.50447C31.6138 8.49896 31.9994 7.29493 32 6.06V5.94C32 4.36461 31.3742 2.85375 30.2602 1.73979C29.1462 0.62582 27.6354 0 26.06 0ZM6 8C5.46957 8 4.96086 7.78929 4.58579 7.41421C4.21071 7.03914 4 6.53043 4 6C4 5.46957 4.21071 4.96086 4.58579 4.58579C4.96086 4.21071 5.46957 4 6 4C6.53043 4 7.03914 4.21071 7.41421 4.58579C7.78929 4.96086 8 5.46957 8 6C8 6.53043 7.78929 7.03914 7.41421 7.41421C7.03914 7.78929 6.53043 8 6 8ZM16 24C15.4696 24 14.9609 23.7893 14.5858 23.4142C14.2107 23.0391 14 22.5304 14 22C14 21.4696 14.2107 20.9609 14.5858 20.5858C14.9609 20.2107 15.4696 20 16 20C16.5304 20 17.0391 20.2107 17.4142 20.5858C17.7893 20.9609 18 21.4696 18 22C18 22.5304 17.7893 23.0391 17.4142 23.4142C17.0391 23.7893 16.5304 24 16 24ZM26 8C25.4696 8 24.9609 7.78929 24.5858 7.41421C24.2107 7.03914 24 6.53043 24 6C24 5.46957 24.2107 4.96086 24.5858 4.58579C24.9609 4.21071 25.4696 4 26 4C26.5304 4 27.0391 4.21071 27.4142 4.58579C27.7893 4.96086 28 5.46957 28 6C28 6.53043 27.7893 7.03914 27.4142 7.41421C27.0391 7.78929 26.5304 8 26 8Z" fill="white"/>
</g>
<defs>
<clipPath id="clip0_197_199">
<rect width="32" height="28" fill="white"/>
</clipPath>
</defs>
</svg>
