<svg width="48" height="64" viewBox="0 0 48 64" fill="none" xmlns="http://www.w3.org/2000/svg">
<path d="M23.9734 11C15.2413 11 8 18.2556 8 27.165C8 32.6067 10.1298 36.9814 14.3894 39.9156V45.1439C14.3894 45.7308 14.7621 46.3176 15.188 46.6911C15.5607 47.0645 16.1464 47.2779 16.6789 47.2779H16.8918L31.5341 46.1042C32.6522 45.9975 33.6106 45.0906 33.6106 43.9702V39.969C37.3378 37.2481 40 32.5534 40 27.165C39.9468 18.2556 32.7055 11 23.9734 11ZM30.3627 36.8747C29.6705 37.2481 29.2978 37.995 29.2978 38.7419V41.9963L18.6489 42.8499V38.7419C18.6489 37.995 18.3295 37.3015 17.6905 36.8747C14.0166 34.7407 12.3128 31.5397 12.3128 27.165C12.2596 20.603 17.5308 15.268 23.9734 15.268C30.416 15.268 35.6872 20.603 35.6872 27.165C35.6339 31.433 33.7171 35.0608 30.3627 36.8747ZM33.3444 50.639C33.4509 51.8127 32.5458 52.8263 31.3744 52.933L16.8386 54H16.6789C15.5607 54 14.6556 53.1464 14.5491 52.0261C14.4426 50.8524 15.3478 49.8387 16.5191 49.732L31.0549 48.665C32.2795 48.5583 33.2912 49.4653 33.3444 50.639ZM32.4393 27.1117C32.3328 28.072 31.5341 28.8189 30.5757 28.8189H30.416C29.4043 28.7122 28.6589 27.8052 28.7654 26.7916C29.0849 23.7506 26.4226 22.6303 26.1032 22.5236C25.1448 22.1501 24.6656 21.0831 24.985 20.1228C25.3045 19.1625 26.3694 18.629 27.3278 19.0025C29.2978 19.696 32.9185 22.3102 32.4393 27.1117Z" fill="#EC8572"/>
</svg>
