<svg width="64" height="64" viewBox="0 0 64 64" fill="none" xmlns="http://www.w3.org/2000/svg">
<path d="M37.5564 50.9134H37.4302C36.9673 50.8855 36.5266 50.7054 36.1766 50.4011C35.8267 50.0968 35.5871 49.6854 35.4952 49.2308L31.9406 31.9837L14.6936 28.4292C14.2381 28.3387 13.8255 28.1001 13.5198 27.7505C13.2142 27.401 13.0329 26.9601 13.0041 26.4967C12.9752 26.0333 13.1006 25.5733 13.3605 25.1886C13.6205 24.8039 14.0005 24.516 14.4412 24.3698L48.094 13.1592C48.4717 13.0032 48.8867 12.9607 49.2883 13.0368C49.6898 13.1129 50.0605 13.3043 50.355 13.5876C50.6495 13.871 50.8551 14.234 50.9466 14.6323C51.0381 15.0306 51.0116 15.4469 50.8703 15.8304L39.6597 49.4832C39.5134 49.9185 39.2286 50.294 38.8488 50.5523C38.469 50.8105 38.0151 50.9374 37.5564 50.9134ZM23.254 25.8842L34.1701 28.1137C34.5782 28.1924 34.9538 28.3902 35.2495 28.6822C35.5452 28.9742 35.7478 29.3472 35.8317 29.7542L38.0402 40.6704L45.4438 18.4806L23.254 25.8842Z" fill="#EC8572"/>
</svg>
