<svg width="64" height="64" viewBox="0 0 64 64" fill="none" xmlns="http://www.w3.org/2000/svg">
<path d="M26.9271 55.9999C23.8957 56.0116 20.9061 55.2921 18.2119 53.9024C15.5177 52.5127 13.1982 50.4938 11.4502 48.0169C9.7022 45.54 8.57715 42.6781 8.17045 39.6737C7.76375 36.6694 8.0874 33.6114 9.11395 30.7588C10.1405 27.9062 11.8397 25.3432 14.0675 23.2871C16.2952 21.231 18.9859 19.7425 21.9113 18.9476C24.8367 18.1528 27.9106 18.0751 30.8724 18.7212C33.8343 19.3673 36.5966 20.7181 38.9254 22.6591L40.9822 20.6021L40.4509 15.9738C40.4225 15.7172 40.4525 15.4575 40.5386 15.2141C40.6247 14.9707 40.7646 14.7499 40.9479 14.5682L47.0156 8.49998C47.2443 8.27201 47.5328 8.11331 47.8478 8.04214C48.1628 7.97097 48.4915 7.99024 48.796 8.09773C49.1005 8.20521 49.3684 8.39654 49.569 8.64967C49.7695 8.9028 49.8945 9.20744 49.9295 9.52849L50.3751 13.6254L54.4716 14.0711C54.7927 14.106 55.0973 14.231 55.3504 14.4316C55.6035 14.6321 55.7948 14.9001 55.9023 15.2046C56.0098 15.5092 56.029 15.8379 55.9579 16.1529C55.8867 16.4679 55.728 16.7564 55.5001 16.9852L49.4324 23.0534C49.2491 23.2337 49.0276 23.3704 48.7843 23.4535C48.541 23.5366 48.2821 23.5639 48.0269 23.5333L43.399 23.0191L41.4107 25.1447C43.6829 27.8991 45.1263 31.2422 45.573 34.7849C46.0197 38.3277 45.4513 41.9245 43.934 45.1568C42.4168 48.3892 40.0129 51.1242 37.0022 53.0438C33.9915 54.9633 30.4976 55.9884 26.9271 55.9999ZM26.9271 21.7163C23.4298 21.7017 20.0313 22.8759 17.289 25.0466C14.5466 27.2172 12.6232 30.2554 11.8341 33.6628C11.045 37.0703 11.437 40.6447 12.946 43.8001C14.4549 46.9554 16.9912 49.5043 20.1388 51.0288C23.2865 52.5533 26.8587 52.9629 30.2696 52.1904C33.6806 51.4179 36.7279 49.5092 38.9117 46.7772C41.0956 44.0453 42.2864 40.6523 42.2889 37.1547C42.2913 33.6571 41.1053 30.2624 38.9254 27.5274L36.5257 29.9615C38.3435 32.3906 39.1737 35.4183 38.8492 38.435C38.5246 41.4516 37.0694 44.2334 34.7764 46.2201C32.4835 48.2069 29.5231 49.2512 26.4912 49.1428C23.4593 49.0344 20.581 47.7814 18.4358 45.636C16.2905 43.4906 15.0376 40.612 14.9292 37.5799C14.8208 34.5477 15.8651 31.5871 17.8517 29.2939C19.8383 27.0008 22.6198 25.5455 25.6362 25.2209C28.6526 24.8963 31.68 25.7265 34.1089 27.5445L36.56 25.1447C33.8321 22.9399 30.4344 21.7307 26.9271 21.7163ZM26.9271 28.573C25.0182 28.5733 23.1639 29.211 21.6585 30.385C20.1531 31.5589 19.0827 33.2019 18.6171 35.0534C18.1515 36.9049 18.3173 38.8588 19.0883 40.6053C19.8593 42.3519 21.1912 43.791 22.8729 44.6944C24.5546 45.5978 26.4898 45.9139 28.3715 45.5924C30.2532 45.271 31.9737 44.3304 33.2602 42.9199C34.5467 41.5094 35.3255 39.7097 35.473 37.8063C35.6205 35.9029 35.1284 34.0047 34.0746 32.4128L31.5722 34.9326C31.8954 35.6252 32.065 36.3796 32.0692 37.1439C32.0692 38.161 31.7676 39.1553 31.2026 40.0009C30.6376 40.8466 29.8345 41.5058 28.8949 41.895C27.9553 42.2842 26.9214 42.386 25.924 42.1876C24.9265 41.9892 24.0103 41.4994 23.2911 40.7802C22.572 40.061 22.0822 39.1447 21.8838 38.1472C21.6854 37.1496 21.7873 36.1156 22.1764 35.1759C22.5656 34.2363 23.2247 33.4331 24.0703 32.868C24.9159 32.303 25.9101 32.0014 26.9271 32.0014C27.6914 32.0056 28.4457 32.1752 29.1382 32.4985L31.6579 29.9958C30.2548 29.0674 28.6095 28.5726 26.9271 28.573ZM26.9271 35.4297C26.5881 35.4297 26.2567 35.5303 25.9749 35.7186C25.693 35.907 25.4733 36.1747 25.3436 36.4879C25.2138 36.8011 25.1799 37.1458 25.246 37.4783C25.3122 37.8108 25.4754 38.1163 25.7151 38.356C25.9548 38.5957 26.2602 38.759 26.5927 38.8251C26.9252 38.8913 27.2699 38.8573 27.5831 38.7276C27.8963 38.5979 28.164 38.3781 28.3523 38.0962C28.5406 37.8143 28.6412 37.4829 28.6412 37.1439C28.6412 36.773 28.5209 36.4121 28.2984 36.1154L28.1098 35.9611L27.9556 35.7726C27.6589 35.55 27.298 35.4297 26.9271 35.4297ZM44.3931 19.6764L47.6669 20.0021L50.6151 17.088L48.7125 16.8823C48.3219 16.8413 47.9573 16.6673 47.6796 16.3896C47.402 16.1119 47.228 15.7473 47.187 15.3567L46.9813 13.454L44.0675 16.4023L44.3931 19.6764Z" fill="#EC8572"/>
</svg>
